<?xml version="1.0" standalone="no"?><!DOCTYPE svg PUBLIC "-//W3C//DTD SVG 1.1//EN" "http://www.w3.org/Graphics/SVG/1.1/DTD/svg11.dtd"><svg t="1530008581296" class="icon" style="" viewBox="0 0 1024 1024" version="1.1" xmlns="http://www.w3.org/2000/svg" p-id="3214" xmlns:xlink="http://www.w3.org/1999/xlink" width="200" height="200"><defs><style type="text/css"></style></defs><path d="M512 110c-221.7 0-402 180.3-402 402s180.3 402 402 402 402-180.3 402-402-180.3-402-402-402z m0 761.7c-198.3 0-359.7-161.3-359.7-359.7S313.7 152.3 512 152.3 871.7 313.7 871.7 512 710.3 871.7 512 871.7z" fill="#1874D0" p-id="3215"></path><path d="M512 585.8c23.4 0 42.3-18.9 42.3-42.3V289.6c0-23.4-18.9-42.3-42.3-42.3s-42.3 18.9-42.3 42.3v253.9c0 23.3 18.9 42.3 42.3 42.3z" fill="#1874D0" p-id="3216"></path><path d="M512 713.3m-63.5 0a63.5 63.5 0 1 0 127 0 63.5 63.5 0 1 0-127 0Z" fill="#1874D0" p-id="3217"></path></svg>