<?xml version="1.0" standalone="no"?><!DOCTYPE svg PUBLIC "-//W3C//DTD SVG 1.1//EN" "http://www.w3.org/Graphics/SVG/1.1/DTD/svg11.dtd"><svg t="1530261725797" class="icon" style="" viewBox="0 0 1024 1024" version="1.1" xmlns="http://www.w3.org/2000/svg" p-id="2912" xmlns:xlink="http://www.w3.org/1999/xlink" width="200" height="200"><defs><style type="text/css"></style></defs><path d="M699.6 190.4c-118.4 0-214.4 96-214.4 214.4 0 40.1 11.2 77.5 30.4 109.6 59.1 138.3 184 319.2 184 319.2s124.9-180.9 184-319.2c19.2-32.1 30.4-69.5 30.4-109.6 0-118.4-96-214.4-214.4-214.4z m0 321.6c-59.2 0-107.2-48-107.2-107.2s48-107.2 107.2-107.2 107.2 48 107.2 107.2S758.8 512 699.6 512zM150.2 351.2c-22.2 0-40.2 18-40.2 40.2v402c0 22.2 18 40.2 40.2 40.2s40.2-18 40.2-40.2v-402c0-22.2-18-40.2-40.2-40.2zM337.8 512c-22.2 0-40.2 18-40.2 40.2v241.2c0 22.2 18 40.2 40.2 40.2 22.2 0 40.2-18 40.2-40.2V552.2c0-22.2-18-40.2-40.2-40.2zM525.4 672.8c-22.2 0-40.2 18-40.2 40.2v80.4c0 22.2 18 40.2 40.2 40.2 22.2 0 40.2-18 40.2-40.2V713c0-22.2-18-40.2-40.2-40.2z" fill="#64A019" p-id="2913"></path></svg>